STARTFONT 2.1
COMMENT
COMMENT Converted from OpenType font "Oxanium-Bold.ttf" by "otf2bdf 3.0".
COMMENT
FONT -FreeType-Oxanium-Bold-R-Normal--11-110-72-72-P-53-ISO10646-1
SIZE 11 72 72
FONTBOUNDINGBOX 18 15 -5 -3
STARTPROPERTIES 19
FOUNDRY "FreeType"
FAMILY_NAME "Oxanium"
WEIGHT_NAME "Bold"
SLANT "R"
SETWIDTH_NAME "Normal"
ADD_STYLE_NAME ""
PIXEL_SIZE 11
POINT_SIZE 110
RESOLUTION_X 72
RESOLUTION_Y 72
SPACING "P"
AVERAGE_WIDTH 53
CHARSET_REGISTRY "ISO10646"
CHARSET_ENCODING "1"
FONT_ASCENT 8
FONT_DESCENT 2
COPYRIGHT "Copyright 2019 The Oxanium Project Authors (https://github.com/sevmeyer/oxanium)"
_OTF_FONTFILE "Oxanium-Bold.ttf"
_OTF_PSNAME "Oxanium-Bold"
ENDPROPERTIES
CHARS 357
STARTCHAR 0000
ENCODING 0
SWIDTH 0 0
DWIDTH 0 0
BBX 0 0 0 0
BITMAP
ENDCHAR
STARTCHAR 000D
ENCODING 13
SWIDTH 272 0
DWIDTH 3 0
BBX 0 0 0 0
BITMAP
ENDCHAR
STARTCHAR 0020
ENCODING 32
SWIDTH 272 0
DWIDTH 3 0
BBX 0 0 0 0
BITMAP
ENDCHAR
STARTCHAR 0021
ENCODING 33
SWIDTH 272 0
DWIDTH 3 0
BBX 1 8 1 0
BITMAP
80
80
80
80
80
00
80
80
ENDCHAR
STARTCHAR 0022
ENCODING 34
SWIDTH 454 0
DWIDTH 5 0
BBX 3 3 1 5
BITMAP
A0
A0
A0
ENDCHAR
STARTCHAR 0023
ENCODING 35
SWIDTH 636 0
DWIDTH 7 0
BBX 6 8 1 0
BITMAP
58
58
FC
58
58
FC
58
58
ENDCHAR
STARTCHAR 0024
ENCODING 36
SWIDTH 545 0
DWIDTH 6 0
BBX 5 11 1 -2
BITMAP
20
20
F0
88
80
F0
18
18
F0
20
20
ENDCHAR
STARTCHAR 0025
ENCODING 37
SWIDTH 909 0
DWIDTH 10 0
BBX 9 8 0 0
BITMAP
6200
F600
F400
FF80
6A80
1A80
1280
3380
ENDCHAR
STARTCHAR 0026
ENCODING 38
SWIDTH 636 0
DWIDTH 7 0
BBX 6 8 1 0
BITMAP
F0
80
80
FC
98
98
98
F8
ENDCHAR
STARTCHAR 0027
ENCODING 39
SWIDTH 272 0
DWIDTH 3 0
BBX 1 3 1 5
BITMAP
80
80
80
ENDCHAR
STARTCHAR 0028
ENCODING 40
SWIDTH 363 0
DWIDTH 4 0
BBX 3 10 1 -2
BITMAP
60
40
C0
80
80
80
80
C0
40
60
ENDCHAR
STARTCHAR 0029
ENCODING 41
SWIDTH 363 0
DWIDTH 4 0
BBX 3 10 0 -2
BITMAP
C0
40
60
60
20
20
60
60
40
C0
ENDCHAR
STARTCHAR 002A
ENCODING 42
SWIDTH 545 0
DWIDTH 6 0
BBX 5 5 0 3
BITMAP
20
78
F0
78
50
ENDCHAR
STARTCHAR 002B
ENCODING 43
SWIDTH 545 0
DWIDTH 6 0
BBX 5 5 1 2
BITMAP
60
60
F8
60
60
ENDCHAR
STARTCHAR 002C
ENCODING 44
SWIDTH 272 0
DWIDTH 3 0
BBX 3 3 0 -1
BITMAP
60
40
C0
ENDCHAR
STARTCHAR 002D
ENCODING 45
SWIDTH 363 0
DWIDTH 4 0
BBX 4 1 0 3
BITMAP
F0
ENDCHAR
STARTCHAR 002E
ENCODING 46
SWIDTH 272 0
DWIDTH 3 0
BBX 1 2 1 0
BITMAP
80
80
ENDCHAR
STARTCHAR 002F
ENCODING 47
SWIDTH 454 0
DWIDTH 5 0
BBX 5 9 0 -1
BITMAP
18
10
30
20
20
60
40
40
C0
ENDCHAR
STARTCHAR 0030
ENCODING 48
SWIDTH 545 0
DWIDTH 6 0
BBX 5 8 1 0
BITMAP
F0
98
98
98
98
98
98
F0
ENDCHAR
STARTCHAR 0031
ENCODING 49
SWIDTH 545 0
DWIDTH 6 0
BBX 5 8 1 0
BITMAP
E0
20
20
20
20
20
20
F8
ENDCHAR
STARTCHAR 0032
ENCODING 50
SWIDTH 545 0
DWIDTH 6 0
BBX 5 8 1 0
BITMAP
F0
18
18
78
E0
80
80
F8
ENDCHAR
STARTCHAR 0033
ENCODING 51
SWIDTH 545 0
DWIDTH 6 0
BBX 5 8 1 0
BITMAP
F0
18
18
F0
18
18
18
F0
ENDCHAR
STARTCHAR 0034
ENCODING 52
SWIDTH 545 0
DWIDTH 6 0
BBX 5 8 1 0
BITMAP
20
60
60
D8
D8
98
F8
18
ENDCHAR
STARTCHAR 0035
ENCODING 53
SWIDTH 545 0
DWIDTH 6 0
BBX 6 8 0 0
BITMAP
78
40
40
78
0C
0C
0C
F8
ENDCHAR
STARTCHAR 0036
ENCODING 54
SWIDTH 545 0
DWIDTH 6 0
BBX 5 8 1 0
BITMAP
F0
80
80
F0
98
98
98
F0
ENDCHAR
STARTCHAR 0037
ENCODING 55
SWIDTH 545 0
DWIDTH 6 0
BBX 5 8 1 0
BITMAP
F8
18
18
30
30
60
60
C0
ENDCHAR
STARTCHAR 0038
ENCODING 56
SWIDTH 545 0
DWIDTH 6 0
BBX 5 8 1 0
BITMAP
F0
98
98
F0
98
98
98
F0
ENDCHAR
STARTCHAR 0039
ENCODING 57
SWIDTH 545 0
DWIDTH 6 0
BBX 5 8 1 0
BITMAP
F0
98
98
98
F8
18
18
F0
ENDCHAR
STARTCHAR 003A
ENCODING 58
SWIDTH 272 0
DWIDTH 3 0
BBX 1 6 1 0
BITMAP
80
80
00
00
80
80
ENDCHAR
STARTCHAR 003B
ENCODING 59
SWIDTH 272 0
DWIDTH 3 0
BBX 3 7 0 -1
BITMAP
40
40
00
00
60
40
C0
ENDCHAR
STARTCHAR 003C
ENCODING 60
SWIDTH 545 0
DWIDTH 6 0
BBX 5 5 1 1
BITMAP
38
E0
80
E0
38
ENDCHAR
STARTCHAR 003D
ENCODING 61
SWIDTH 545 0
DWIDTH 6 0
BBX 5 3 1 2
BITMAP
F8
00
F8
ENDCHAR
STARTCHAR 003E
ENCODING 62
SWIDTH 545 0
DWIDTH 6 0
BBX 5 5 1 1
BITMAP
C0
70
18
70
C0
ENDCHAR
STARTCHAR 003F
ENCODING 63
SWIDTH 545 0
DWIDTH 6 0
BBX 5 8 0 0
BITMAP
F8
08
08
08
38
00
20
20
ENDCHAR
STARTCHAR 0040
ENCODING 64
SWIDTH 818 0
DWIDTH 9 0
BBX 7 9 1 -1
BITMAP
FE
82
9E
B6
B6
B6
9E
80
FE
ENDCHAR
STARTCHAR 0041
ENCODING 65
SWIDTH 636 0
DWIDTH 7 0
BBX 7 8 0 0
BITMAP
38
38
2C
6C
64
7C
46
C6
ENDCHAR
STARTCHAR 0042
ENCODING 66
SWIDTH 636 0
DWIDTH 7 0
BBX 6 8 1 0
BITMAP
F8
88
88
F8
88
8C
8C
F8
ENDCHAR
STARTCHAR 0043
ENCODING 67
SWIDTH 636 0
DWIDTH 7 0
BBX 5 8 1 0
BITMAP
F8
80
80
80
80
80
80
F8
ENDCHAR
STARTCHAR 0044
ENCODING 68
SWIDTH 727 0
DWIDTH 8 0
BBX 6 8 1 0
BITMAP
F8
9C
8C
8C
8C
8C
9C
F8
ENDCHAR
STARTCHAR 0045
ENCODING 69
SWIDTH 636 0
DWIDTH 7 0
BBX 5 8 1 0
BITMAP
F8
80
80
F8
80
80
80
F8
ENDCHAR
STARTCHAR 0046
ENCODING 70
SWIDTH 545 0
DWIDTH 6 0
BBX 5 8 1 0
BITMAP
F8
80
80
80
F8
80
80
80
ENDCHAR
STARTCHAR 0047
ENCODING 71
SWIDTH 636 0
DWIDTH 7 0
BBX 6 8 1 0
BITMAP
FC
80
80
9C
8C
8C
8C
FC
ENDCHAR
STARTCHAR 0048
ENCODING 72
SWIDTH 727 0
DWIDTH 8 0
BBX 6 8 1 0
BITMAP
8C
8C
8C
FC
8C
8C
8C
8C
ENDCHAR
STARTCHAR 0049
ENCODING 73
SWIDTH 272 0
DWIDTH 3 0
BBX 1 8 1 0
BITMAP
80
80
80
80
80
80
80
80
ENDCHAR
STARTCHAR 004A
ENCODING 74
SWIDTH 636 0
DWIDTH 7 0
BBX 5 8 1 0
BITMAP
78
18
18
18
98
98
98
F0
ENDCHAR
STARTCHAR 004B
ENCODING 75
SWIDTH 636 0
DWIDTH 7 0
BBX 6 8 1 0
BITMAP
8C
98
B0
E0
F0
98
88
8C
ENDCHAR
STARTCHAR 004C
ENCODING 76
SWIDTH 545 0
DWIDTH 6 0
BBX 5 8 1 0
BITMAP
80
80
80
80
80
80
80
F8
ENDCHAR
STARTCHAR 004D
ENCODING 77
SWIDTH 909 0
DWIDTH 10 0
BBX 8 8 1 0
BITMAP
C3
C7
E7
A7
BF
9B
9B
83
ENDCHAR
STARTCHAR 004E
ENCODING 78
SWIDTH 727 0
DWIDTH 8 0
BBX 6 8 1 0
BITMAP
C4
C4
E4
B4
B4
9C
8C
8C
ENDCHAR
STARTCHAR 004F
ENCODING 79
SWIDTH 727 0
DWIDTH 8 0
BBX 6 8 1 0
BITMAP
FC
8C
8C
8C
8C
8C
8C
FC
ENDCHAR
STARTCHAR 0050
ENCODING 80
SWIDTH 636 0
DWIDTH 7 0
BBX 5 8 1 0
BITMAP
F8
88
88
88
F8
80
80
80
ENDCHAR
STARTCHAR 0051
ENCODING 81
SWIDTH 727 0
DWIDTH 8 0
BBX 6 10 1 -2
BITMAP
FC
8C
8C
8C
8C
8C
8C
FC
18
08
ENDCHAR
STARTCHAR 0052
ENCODING 82
SWIDTH 636 0
DWIDTH 7 0
BBX 6 8 1 0
BITMAP
F8
88
88
88
F8
98
98
8C
ENDCHAR
STARTCHAR 0053
ENCODING 83
SWIDTH 545 0
DWIDTH 6 0
BBX 5 8 1 0
BITMAP
F8
80
80
F0
38
18
18
F0
ENDCHAR
STARTCHAR 0054
ENCODING 84
SWIDTH 636 0
DWIDTH 7 0
BBX 6 8 0 0
BITMAP
FC
10
10
10
10
10
10
10
ENDCHAR
STARTCHAR 0055
ENCODING 85
SWIDTH 727 0
DWIDTH 8 0
BBX 6 8 1 0
BITMAP
8C
8C
8C
8C
8C
8C
CC
F8
ENDCHAR
STARTCHAR 0056
ENCODING 86
SWIDTH 636 0
DWIDTH 7 0
BBX 7 8 0 0
BITMAP
C6
46
44
64
6C
2C
28
38
ENDCHAR
STARTCHAR 0057
ENCODING 87
SWIDTH 1000 0
DWIDTH 11 0
BBX 10 8 0 0
BITMAP
C040
4CC0
4CC0
4EC0
6E80
7A80
3B80
3380
ENDCHAR
STARTCHAR 0058
ENCODING 88
SWIDTH 636 0
DWIDTH 7 0
BBX 7 8 0 0
BITMAP
C6
6C
38
38
38
28
6C
C6
ENDCHAR
STARTCHAR 0059
ENCODING 89
SWIDTH 636 0
DWIDTH 7 0
BBX 7 8 0 0
BITMAP
C6
4C
6C
38
38
10
10
10
ENDCHAR
STARTCHAR 005A
ENCODING 90
SWIDTH 636 0
DWIDTH 7 0
BBX 6 8 0 0
BITMAP
7C
0C
18
18
30
60
60
FC
ENDCHAR
STARTCHAR 005B
ENCODING 91
SWIDTH 363 0
DWIDTH 4 0
BBX 3 10 1 -2
BITMAP
E0
80
80
80
80
80
80
80
80
E0
ENDCHAR
STARTCHAR 005C
ENCODING 92
SWIDTH 454 0
DWIDTH 5 0
BBX 5 9 0 -1
BITMAP
C0
40
40
60
20
20
30
10
18
ENDCHAR
STARTCHAR 005D
ENCODING 93
SWIDTH 363 0
DWIDTH 4 0
BBX 3 10 0 -2
BITMAP
E0
20
20
20
20
20
20
20
20
E0
ENDCHAR
STARTCHAR 005E
ENCODING 94
SWIDTH 545 0
DWIDTH 6 0
BBX 6 4 0 4
BITMAP
30
38
48
CC
ENDCHAR
STARTCHAR 005F
ENCODING 95
SWIDTH 545 0
DWIDTH 6 0
BBX 6 1 0 -2
BITMAP
FC
ENDCHAR
STARTCHAR 0060
ENCODING 96
SWIDTH 545 0
DWIDTH 6 0
BBX 3 3 1 7
BITMAP
C0
40
60
ENDCHAR
STARTCHAR 0061
ENCODING 97
SWIDTH 545 0
DWIDTH 6 0
BBX 5 6 0 0
BITMAP
78
08
78
48
C8
78
ENDCHAR
STARTCHAR 0062
ENCODING 98
SWIDTH 545 0
DWIDTH 6 0
BBX 5 8 1 0
BITMAP
80
80
F0
98
98
98
98
F0
ENDCHAR
STARTCHAR 0063
ENCODING 99
SWIDTH 545 0
DWIDTH 6 0
BBX 4 6 1 0
BITMAP
F0
80
80
80
80
F0
ENDCHAR
STARTCHAR 0064
ENCODING 100
SWIDTH 545 0
DWIDTH 6 0
BBX 5 8 1 0
BITMAP
18
18
F8
98
98
98
98
F8
ENDCHAR
STARTCHAR 0065
ENCODING 101
SWIDTH 545 0
DWIDTH 6 0
BBX 5 6 1 0
BITMAP
F0
98
F8
80
80
F0
ENDCHAR
STARTCHAR 0066
ENCODING 102
SWIDTH 454 0
DWIDTH 5 0
BBX 3 8 1 0
BITMAP
E0
80
E0
80
80
80
80
80
ENDCHAR
STARTCHAR 0067
ENCODING 103
SWIDTH 545 0
DWIDTH 6 0
BBX 5 8 1 -2
BITMAP
F8
98
98
98
98
F8
18
F0
ENDCHAR
STARTCHAR 0068
ENCODING 104
SWIDTH 636 0
DWIDTH 7 0
BBX 5 8 1 0
BITMAP
80
80
F0
98
98
98
98
98
ENDCHAR
STARTCHAR 0069
ENCODING 105
SWIDTH 272 0
DWIDTH 3 0
BBX 1 9 1 0
BITMAP
80
80
00
80
80
80
80
80
80
ENDCHAR
STARTCHAR 006A
ENCODING 106
SWIDTH 272 0
DWIDTH 3 0
BBX 2 11 0 -2
BITMAP
40
40
00
40
40
40
40
40
40
40
C0
ENDCHAR
STARTCHAR 006B
ENCODING 107
SWIDTH 545 0
DWIDTH 6 0
BBX 5 8 1 0
BITMAP
80
80
98
B0
E0
F0
B0
98
ENDCHAR
STARTCHAR 006C
ENCODING 108
SWIDTH 272 0
DWIDTH 3 0
BBX 2 8 1 0
BITMAP
80
80
80
80
80
80
80
C0
ENDCHAR
STARTCHAR 006D
ENCODING 109
SWIDTH 909 0
DWIDTH 10 0
BBX 8 6 1 0
BITMAP
FF
99
99
99
99
99
ENDCHAR
STARTCHAR 006E
ENCODING 110
SWIDTH 636 0
DWIDTH 7 0
BBX 5 6 1 0
BITMAP
F0
98
98
98
98
98
ENDCHAR
STARTCHAR 006F
ENCODING 111
SWIDTH 636 0
DWIDTH 7 0
BBX 5 6 1 0
BITMAP
F0
98
98
98
98
F0
ENDCHAR
STARTCHAR 0070
ENCODING 112
SWIDTH 545 0
DWIDTH 6 0
BBX 5 8 1 -2
BITMAP
F0
98
98
98
98
F0
80
80
ENDCHAR
STARTCHAR 0071
ENCODING 113
SWIDTH 545 0
DWIDTH 6 0
BBX 5 8 1 -2
BITMAP
F8
98
98
98
98
F8
18
18
ENDCHAR
STARTCHAR 0072
ENCODING 114
SWIDTH 363 0
DWIDTH 4 0
BBX 3 6 1 0
BITMAP
E0
80
80
80
80
80
ENDCHAR
STARTCHAR 0073
ENCODING 115
SWIDTH 545 0
DWIDTH 6 0
BBX 4 6 1 0
BITMAP
F0
80
E0
70
30
F0
ENDCHAR
STARTCHAR 0074
ENCODING 116
SWIDTH 454 0
DWIDTH 5 0
BBX 3 8 1 0
BITMAP
80
80
E0
80
80
80
80
E0
ENDCHAR
STARTCHAR 0075
ENCODING 117
SWIDTH 636 0
DWIDTH 7 0
BBX 5 6 1 0
BITMAP
98
98
98
98
98
F8
ENDCHAR
STARTCHAR 0076
ENCODING 118
SWIDTH 545 0
DWIDTH 6 0
BBX 6 6 0 0
BITMAP
CC
4C
48
78
78
30
ENDCHAR
STARTCHAR 0077
ENCODING 119
SWIDTH 818 0
DWIDTH 9 0
BBX 9 6 0 0
BITMAP
C980
DD80
5500
5500
7500
7700
ENDCHAR
STARTCHAR 0078
ENCODING 120
SWIDTH 545 0
DWIDTH 6 0
BBX 6 6 0 0
BITMAP
CC
78
30
30
78
CC
ENDCHAR
STARTCHAR 0079
ENCODING 121
SWIDTH 545 0
DWIDTH 6 0
BBX 6 8 0 -2
BITMAP
CC
4C
48
78
78
30
10
30
ENDCHAR
STARTCHAR 007A
ENCODING 122
SWIDTH 545 0
DWIDTH 6 0
BBX 5 6 0 0
BITMAP
78
18
30
20
60
F8
ENDCHAR
STARTCHAR 007B
ENCODING 123
SWIDTH 454 0
DWIDTH 5 0
BBX 3 10 1 -2
BITMAP
60
C0
C0
C0
C0
C0
C0
C0
C0
60
ENDCHAR
STARTCHAR 007C
ENCODING 124
SWIDTH 272 0
DWIDTH 3 0
BBX 1 10 1 -2
BITMAP
80
80
80
80
80
80
80
80
80
80
ENDCHAR
STARTCHAR 007D
ENCODING 125
SWIDTH 454 0
DWIDTH 5 0
BBX 4 10 0 -2
BITMAP
E0
20
20
20
30
30
20
20
20
E0
ENDCHAR
STARTCHAR 007E
ENCODING 126
SWIDTH 545 0
DWIDTH 6 0
BBX 6 3 0 2
BITMAP
64
FC
58
ENDCHAR
STARTCHAR 00A0
ENCODING 160
SWIDTH 272 0
DWIDTH 3 0
BBX 0 0 0 0
BITMAP
ENDCHAR
STARTCHAR 00A1
ENCODING 161
SWIDTH 272 0
DWIDTH 3 0
BBX 1 8 1 -2
BITMAP
80
80
00
80
80
80
80
80
ENDCHAR
STARTCHAR 00A2
ENCODING 162
SWIDTH 545 0
DWIDTH 6 0
BBX 4 8 1 -1
BITMAP
20
F0
80
80
80
80
F0
20
ENDCHAR
STARTCHAR 00A3
ENCODING 163
SWIDTH 545 0
DWIDTH 6 0
BBX 5 8 1 0
BITMAP
78
40
40
F0
40
40
40
F8
ENDCHAR
STARTCHAR 00A4
ENCODING 164
SWIDTH 545 0
DWIDTH 6 0
BBX 6 6 0 1
BITMAP
C4
78
68
68
78
C4
ENDCHAR
STARTCHAR 00A5
ENCODING 165
SWIDTH 545 0
DWIDTH 6 0
BBX 6 8 0 0
BITMAP
CC
4C
78
38
78
30
78
30
ENDCHAR
STARTCHAR 00A6
ENCODING 166
SWIDTH 272 0
DWIDTH 3 0
BBX 1 10 1 -2
BITMAP
80
80
80
80
00
00
80
80
80
80
ENDCHAR
STARTCHAR 00A7
ENCODING 167
SWIDTH 545 0
DWIDTH 6 0
BBX 4 9 1 -1
BITMAP
F0
80
E0
B0
90
D0
70
10
F0
ENDCHAR
STARTCHAR 00A8
ENCODING 168
SWIDTH 545 0
DWIDTH 6 0
BBX 4 2 1 7
BITMAP
B0
B0
ENDCHAR
STARTCHAR 00A9
ENCODING 169
SWIDTH 818 0
DWIDTH 9 0
BBX 7 8 1 0
BITMAP
FE
82
BA
A2
A2
BA
82
FE
ENDCHAR
STARTCHAR 00AA
ENCODING 170
SWIDTH 363 0
DWIDTH 4 0
BBX 4 5 0 3
BITMAP
70
10
70
D0
70
ENDCHAR
STARTCHAR 00AB
ENCODING 171
SWIDTH 545 0
DWIDTH 6 0
BBX 6 5 0 1
BITMAP
24
68
D8
68
24
ENDCHAR
STARTCHAR 00AC
ENCODING 172
SWIDTH 545 0
DWIDTH 6 0
BBX 5 3 1 2
BITMAP
F8
18
18
ENDCHAR
STARTCHAR 00AD
ENCODING 173
SWIDTH 363 0
DWIDTH 4 0
BBX 4 1 0 3
BITMAP
F0
ENDCHAR
STARTCHAR 00AE
ENCODING 174
SWIDTH 818 0
DWIDTH 9 0
BBX 7 8 1 0
BITMAP
FE
82
BA
AA
BA
AA
82
FE
ENDCHAR
STARTCHAR 00AF
ENCODING 175
SWIDTH 545 0
DWIDTH 6 0
BBX 3 1 1 7
BITMAP
E0
ENDCHAR
STARTCHAR 00B0
ENCODING 176
SWIDTH 454 0
DWIDTH 5 0
BBX 3 4 1 4
BITMAP
E0
A0
A0
E0
ENDCHAR
STARTCHAR 00B1
ENCODING 177
SWIDTH 545 0
DWIDTH 6 0
BBX 5 7 1 0
BITMAP
60
60
F8
60
60
00
F8
ENDCHAR
STARTCHAR 00B2
ENCODING 178
SWIDTH 363 0
DWIDTH 4 0
BBX 4 5 0 3
BITMAP
E0
30
60
C0
F0
ENDCHAR
STARTCHAR 00B3
ENCODING 179
SWIDTH 363 0
DWIDTH 4 0
BBX 4 5 0 3
BITMAP
E0
30
60
30
E0
ENDCHAR
STARTCHAR 00B4
ENCODING 180
SWIDTH 545 0
DWIDTH 6 0
BBX 2 3 2 7
BITMAP
40
C0
80
ENDCHAR
STARTCHAR 00B5
ENCODING 181
SWIDTH 636 0
DWIDTH 7 0
BBX 5 8 1 -2
BITMAP
98
98
98
98
98
F0
80
80
ENDCHAR
STARTCHAR 00B6
ENCODING 182
SWIDTH 636 0
DWIDTH 7 0
BBX 5 10 1 -2
BITMAP
E8
E8
E8
E8
E8
08
08
08
08
08
ENDCHAR
STARTCHAR 00B7
ENCODING 183
SWIDTH 272 0
DWIDTH 3 0
BBX 1 2 1 3
BITMAP
80
80
ENDCHAR
STARTCHAR 00B8
ENCODING 184
SWIDTH 545 0
DWIDTH 6 0
BBX 2 3 2 -2
BITMAP
40
40
C0
ENDCHAR
STARTCHAR 00B9
ENCODING 185
SWIDTH 363 0
DWIDTH 4 0
BBX 3 5 1 3
BITMAP
C0
40
40
40
E0
ENDCHAR
STARTCHAR 00BA
ENCODING 186
SWIDTH 454 0
DWIDTH 5 0
BBX 4 5 0 3
BITMAP
70
D0
D0
D0
70
ENDCHAR
STARTCHAR 00BB
ENCODING 187
SWIDTH 545 0
DWIDTH 6 0
BBX 6 5 0 1
BITMAP
D8
68
24
68
D8
ENDCHAR
STARTCHAR 00BC
ENCODING 188
SWIDTH 909 0
DWIDTH 10 0
BBX 8 8 1 0
BITMAP
C6
44
4C
4A
FA
15
37
21
ENDCHAR
STARTCHAR 00BD
ENCODING 189
SWIDTH 909 0
DWIDTH 10 0
BBX 9 8 1 0
BITMAP
C600
4400
4C00
4B80
F880
1300
3600
2780
ENDCHAR
STARTCHAR 00BE
ENCODING 190
SWIDTH 818 0
DWIDTH 9 0
BBX 9 8 0 0
BITMAP
E200
3600
6400
3D00
EB00
1A80
1380
3080
ENDCHAR
STARTCHAR 00BF
ENCODING 191
SWIDTH 545 0
DWIDTH 6 0
BBX 4 8 1 -2
BITMAP
60
60
00
E0
80
80
80
F0
ENDCHAR
STARTCHAR 00C0
ENCODING 192
SWIDTH 636 0
DWIDTH 7 0
BBX 7 12 0 0
BITMAP
30
10
18
00
38
38
2C
6C
64
7C
46
C6
ENDCHAR
STARTCHAR 00C1
ENCODING 193
SWIDTH 636 0
DWIDTH 7 0
BBX 7 12 0 0
BITMAP
08
18
10
00
38
38
2C
6C
64
7C
46
C6
ENDCHAR
STARTCHAR 00C2
ENCODING 194
SWIDTH 636 0
DWIDTH 7 0
BBX 7 12 0 0
BITMAP
10
38
28
00
38
38
2C
6C
64
7C
46
C6
ENDCHAR
STARTCHAR 00C3
ENCODING 195
SWIDTH 636 0
DWIDTH 7 0
BBX 7 11 0 0
BITMAP
34
28
00
38
38
2C
6C
64
7C
46
C6
ENDCHAR
STARTCHAR 00C4
ENCODING 196
SWIDTH 636 0
DWIDTH 7 0
BBX 7 11 0 0
BITMAP
28
28
00
38
38
2C
6C
64
7C
46
C6
ENDCHAR
STARTCHAR 00C5
ENCODING 197
SWIDTH 636 0
DWIDTH 7 0
BBX 7 12 0 0
BITMAP
38
28
38
00
38
38
2C
6C
64
7C
46
C6
ENDCHAR
STARTCHAR 00C6
ENCODING 198
SWIDTH 909 0
DWIDTH 10 0
BBX 10 8 0 0
BITMAP
3FC0
3400
2400
6780
6400
7C00
4400
C7C0
ENDCHAR
STARTCHAR 00C7
ENCODING 199
SWIDTH 636 0
DWIDTH 7 0
BBX 5 10 1 -2
BITMAP
F8
80
80
80
80
80
80
F8
10
30
ENDCHAR
STARTCHAR 00C8
ENCODING 200
SWIDTH 636 0
DWIDTH 7 0
BBX 5 12 1 0
BITMAP
40
20
20
00
F8
80
80
F8
80
80
80
F8
ENDCHAR
STARTCHAR 00C9
ENCODING 201
SWIDTH 636 0
DWIDTH 7 0
BBX 5 12 1 0
BITMAP
10
30
20
00
F8
80
80
F8
80
80
80
F8
ENDCHAR
STARTCHAR 00CA
ENCODING 202
SWIDTH 636 0
DWIDTH 7 0
BBX 5 12 1 0
BITMAP
20
70
50
00
F8
80
80
F8
80
80
80
F8
ENDCHAR
STARTCHAR 00CB
ENCODING 203
SWIDTH 636 0
DWIDTH 7 0
BBX 5 11 1 0
BITMAP
50
50
00
F8
80
80
F8
80
80
80
F8
ENDCHAR
STARTCHAR 00CC
ENCODING 204
SWIDTH 272 0
DWIDTH 3 0
BBX 3 12 0 0
BITMAP
C0
40
60
00
40
40
40
40
40
40
40
40
ENDCHAR
STARTCHAR 00CD
ENCODING 205
SWIDTH 272 0
DWIDTH 3 0
BBX 2 12 1 0
BITMAP
40
C0
80
00
80
80
80
80
80
80
80
80
ENDCHAR
STARTCHAR 00CE
ENCODING 206
SWIDTH 272 0
DWIDTH 3 0
BBX 3 12 0 0
BITMAP
40
E0
A0
00
40
40
40
40
40
40
40
40
ENDCHAR
STARTCHAR 00CF
ENCODING 207
SWIDTH 272 0
DWIDTH 3 0
BBX 3 11 0 0
BITMAP
A0
A0
00
40
40
40
40
40
40
40
40
ENDCHAR
STARTCHAR 00D0
ENCODING 208
SWIDTH 727 0
DWIDTH 8 0
BBX 7 8 0 0
BITMAP
7C
66
66
F6
66
66
66
7C
ENDCHAR
STARTCHAR 00D1
ENCODING 209
SWIDTH 727 0
DWIDTH 8 0
BBX 6 11 1 0
BITMAP
28
50
00
C4
C4
E4
B4
B4
9C
8C
8C
ENDCHAR
STARTCHAR 00D2
ENCODING 210
SWIDTH 727 0
DWIDTH 8 0
BBX 6 12 1 0
BITMAP
60
20
10
00
FC
8C
8C
8C
8C
8C
8C
FC
ENDCHAR
STARTCHAR 00D3
ENCODING 211
SWIDTH 727 0
DWIDTH 8 0
BBX 6 12 1 0
BITMAP
10
30
20
00
FC
8C
8C
8C
8C
8C
8C
FC
ENDCHAR
STARTCHAR 00D4
ENCODING 212
SWIDTH 727 0
DWIDTH 8 0
BBX 6 12 1 0
BITMAP
20
30
58
00
FC
8C
8C
8C
8C
8C
8C
FC
ENDCHAR
STARTCHAR 00D5
ENCODING 213
SWIDTH 727 0
DWIDTH 8 0
BBX 6 11 1 0
BITMAP
28
50
00
FC
8C
8C
8C
8C
8C
8C
FC
ENDCHAR
STARTCHAR 00D6
ENCODING 214
SWIDTH 727 0
DWIDTH 8 0
BBX 6 11 1 0
BITMAP
58
58
00
FC
8C
8C
8C
8C
8C
8C
FC
ENDCHAR
STARTCHAR 00D7
ENCODING 215
SWIDTH 545 0
DWIDTH 6 0
BBX 5 5 1 1
BITMAP
98
F0
60
F0
98
ENDCHAR
STARTCHAR 00D8
ENCODING 216
SWIDTH 727 0
DWIDTH 8 0
BBX 6 8 1 0
BITMAP
FC
8C
8C
9C
AC
CC
8C
FC
ENDCHAR
STARTCHAR 00D9
ENCODING 217
SWIDTH 727 0
DWIDTH 8 0
BBX 6 12 1 0
BITMAP
60
20
10
00
8C
8C
8C
8C
8C
8C
CC
F8
ENDCHAR
STARTCHAR 00DA
ENCODING 218
SWIDTH 727 0
DWIDTH 8 0
BBX 6 12 1 0
BITMAP
10
30
20
00
8C
8C
8C
8C
8C
8C
CC
F8
ENDCHAR
STARTCHAR 00DB
ENCODING 219
SWIDTH 727 0
DWIDTH 8 0
BBX 6 12 1 0
BITMAP
20
30
58
00
8C
8C
8C
8C
8C
8C
CC
F8
ENDCHAR
STARTCHAR 00DC
ENCODING 220
SWIDTH 727 0
DWIDTH 8 0
BBX 6 11 1 0
BITMAP
58
58
00
8C
8C
8C
8C
8C
8C
CC
F8
ENDCHAR
STARTCHAR 00DD
ENCODING 221
SWIDTH 636 0
DWIDTH 7 0
BBX 7 12 0 0
BITMAP
08
10
30
00
C6
4C
6C
38
38
10
10
10
ENDCHAR
STARTCHAR 00DE
ENCODING 222
SWIDTH 636 0
DWIDTH 7 0
BBX 5 8 1 0
BITMAP
80
F8
88
88
88
F8
80
80
ENDCHAR
STARTCHAR 00DF
ENCODING 223
SWIDTH 636 0
DWIDTH 7 0
BBX 5 8 1 0
BITMAP
F8
98
98
B0
88
88
88
B8
ENDCHAR
STARTCHAR 00E0
ENCODING 224
SWIDTH 545 0
DWIDTH 6 0
BBX 5 10 0 0
BITMAP
20
30
10
00
78
08
78
48
C8
78
ENDCHAR
STARTCHAR 00E1
ENCODING 225
SWIDTH 545 0
DWIDTH 6 0
BBX 5 10 0 0
BITMAP
10
10
20
00
78
08
78
48
C8
78
ENDCHAR
STARTCHAR 00E2
ENCODING 226
SWIDTH 545 0
DWIDTH 6 0
BBX 5 10 0 0
BITMAP
10
30
48
00
78
08
78
48
C8
78
ENDCHAR
STARTCHAR 00E3
ENCODING 227
SWIDTH 545 0
DWIDTH 6 0
BBX 5 9 0 0
BITMAP
28
50
00
78
08
78
48
C8
78
ENDCHAR
STARTCHAR 00E4
ENCODING 228
SWIDTH 545 0
DWIDTH 6 0
BBX 5 9 0 0
BITMAP
78
78
00
78
08
78
48
C8
78
ENDCHAR
STARTCHAR 00E5
ENCODING 229
SWIDTH 545 0
DWIDTH 6 0
BBX 5 10 0 0
BITMAP
30
30
30
00
78
08
78
48
C8
78
ENDCHAR
STARTCHAR 00E6
ENCODING 230
SWIDTH 818 0
DWIDTH 9 0
BBX 9 6 0 0
BITMAP
7F00
0980
7F80
4800
C800
7F80
ENDCHAR
STARTCHAR 00E7
ENCODING 231
SWIDTH 545 0
DWIDTH 6 0
BBX 4 8 1 -2
BITMAP
F0
80
80
80
80
F0
20
60
ENDCHAR
STARTCHAR 00E8
ENCODING 232
SWIDTH 545 0
DWIDTH 6 0
BBX 5 10 1 0
BITMAP
40
60
20
00
F0
98
F8
80
80
F0
ENDCHAR
STARTCHAR 00E9
ENCODING 233
SWIDTH 545 0
DWIDTH 6 0
BBX 5 10 1 0
BITMAP
30
20
40
00
F0
98
F8
80
80
F0
ENDCHAR
STARTCHAR 00EA
ENCODING 234
SWIDTH 545 0
DWIDTH 6 0
BBX 5 10 1 0
BITMAP
20
60
D0
00
F0
98
F8
80
80
F0
ENDCHAR
STARTCHAR 00EB
ENCODING 235
SWIDTH 545 0
DWIDTH 6 0
BBX 5 9 1 0
BITMAP
D0
D0
00
F0
98
F8
80
80
F0
ENDCHAR
STARTCHAR 00EC
ENCODING 236
SWIDTH 272 0
DWIDTH 3 0
BBX 2 10 0 0
BITMAP
80
40
40
00
40
40
40
40
40
40
ENDCHAR
STARTCHAR 00ED
ENCODING 237
SWIDTH 272 0
DWIDTH 3 0
BBX 2 10 1 0
BITMAP
40
C0
80
00
80
80
80
80
80
80
ENDCHAR
STARTCHAR 00EE
ENCODING 238
SWIDTH 272 0
DWIDTH 3 0
BBX 3 10 0 0
BITMAP
40
E0
A0
00
40
40
40
40
40
40
ENDCHAR
STARTCHAR 00EF
ENCODING 239
SWIDTH 272 0
DWIDTH 3 0
BBX 3 9 0 0
BITMAP
A0
A0
00
40
40
40
40
40
40
ENDCHAR
STARTCHAR 00F0
ENCODING 240
SWIDTH 636 0
DWIDTH 7 0
BBX 5 8 1 0
BITMAP
30
78
50
F8
98
98
98
F0
ENDCHAR
STARTCHAR 00F1
ENCODING 241
SWIDTH 636 0
DWIDTH 7 0
BBX 5 9 1 0
BITMAP
50
B0
00
F0
98
98
98
98
98
ENDCHAR
STARTCHAR 00F2
ENCODING 242
SWIDTH 636 0
DWIDTH 7 0
BBX 5 10 1 0
BITMAP
40
60
20
00
F0
98
98
98
98
F0
ENDCHAR
STARTCHAR 00F3
ENCODING 243
SWIDTH 636 0
DWIDTH 7 0
BBX 5 10 1 0
BITMAP
30
20
60
00
F0
98
98
98
98
F0
ENDCHAR
STARTCHAR 00F4
ENCODING 244
SWIDTH 636 0
DWIDTH 7 0
BBX 5 10 1 0
BITMAP
20
60
50
00
F0
98
98
98
98
F0
ENDCHAR
STARTCHAR 00F5
ENCODING 245
SWIDTH 636 0
DWIDTH 7 0
BBX 5 9 1 0
BITMAP
50
B0
00
F0
98
98
98
98
F0
ENDCHAR
STARTCHAR 00F6
ENCODING 246
SWIDTH 636 0
DWIDTH 7 0
BBX 5 9 1 0
BITMAP
D0
D0
00
F0
98
98
98
98
F0
ENDCHAR
STARTCHAR 00F7
ENCODING 247
SWIDTH 545 0
DWIDTH 6 0
BBX 5 5 1 2
BITMAP
20
00
F8
00
20
ENDCHAR
STARTCHAR 00F8
ENCODING 248
SWIDTH 636 0
DWIDTH 7 0
BBX 5 6 1 0
BITMAP
F0
98
B8
D8
98
F0
ENDCHAR
STARTCHAR 00F9
ENCODING 249
SWIDTH 636 0
DWIDTH 7 0
BBX 5 10 1 0
BITMAP
40
60
20
00
98
98
98
98
98
F8
ENDCHAR
STARTCHAR 00FA
ENCODING 250
SWIDTH 636 0
DWIDTH 7 0
BBX 5 10 1 0
BITMAP
30
20
60
00
98
98
98
98
98
F8
ENDCHAR
STARTCHAR 00FB
ENCODING 251
SWIDTH 636 0
DWIDTH 7 0
BBX 5 10 1 0
BITMAP
20
60
50
00
98
98
98
98
98
F8
ENDCHAR
STARTCHAR 00FC
ENCODING 252
SWIDTH 636 0
DWIDTH 7 0
BBX 5 9 1 0
BITMAP
D0
D0
00
98
98
98
98
98
F8
ENDCHAR
STARTCHAR 00FD
ENCODING 253
SWIDTH 545 0
DWIDTH 6 0
BBX 6 12 0 -2
BITMAP
10
10
20
00
CC
4C
48
78
78
30
10
30
ENDCHAR
STARTCHAR 00FE
ENCODING 254
SWIDTH 545 0
DWIDTH 6 0
BBX 5 10 1 -2
BITMAP
80
80
F0
98
98
98
98
F0
80
80
ENDCHAR
STARTCHAR 00FF
ENCODING 255
SWIDTH 545 0
DWIDTH 6 0
BBX 6 11 0 -2
BITMAP
78
78
00
CC
4C
48
78
78
30
10
30
ENDCHAR
STARTCHAR 0100
ENCODING 256
SWIDTH 636 0
DWIDTH 7 0
BBX 7 10 0 0
BITMAP
38
00
38
38
2C
6C
64
7C
46
C6
ENDCHAR
STARTCHAR 0101
ENCODING 257
SWIDTH 545 0
DWIDTH 6 0
BBX 5 8 0 0
BITMAP
78
00
78
08
78
48
C8
78
ENDCHAR
STARTCHAR 0102
ENCODING 258
SWIDTH 636 0
DWIDTH 7 0
BBX 7 11 0 0
BITMAP
28
38
00
38
38
2C
6C
64
7C
46
C6
ENDCHAR
STARTCHAR 0103
ENCODING 259
SWIDTH 545 0
DWIDTH 6 0
BBX 5 9 0 0
BITMAP
48
30
00
78
08
78
48
C8
78
ENDCHAR
STARTCHAR 0104
ENCODING 260
SWIDTH 636 0
DWIDTH 7 0
BBX 7 10 0 -2
BITMAP
38
38
2C
6C
64
7C
46
C6
04
06
ENDCHAR
STARTCHAR 0105
ENCODING 261
SWIDTH 545 0
DWIDTH 6 0
BBX 5 8 0 -2
BITMAP
78
08
78
48
C8
78
10
18
ENDCHAR
STARTCHAR 0106
ENCODING 262
SWIDTH 636 0
DWIDTH 7 0
BBX 5 12 1 0
BITMAP
10
30
20
00
F8
80
80
80
80
80
80
F8
ENDCHAR
STARTCHAR 0107
ENCODING 263
SWIDTH 545 0
DWIDTH 6 0
BBX 4 10 1 0
BITMAP
30
20
40
00
F0
80
80
80
80
F0
ENDCHAR
STARTCHAR 010C
ENCODING 268
SWIDTH 636 0
DWIDTH 7 0
BBX 5 12 1 0
BITMAP
58
30
20
00
F8
80
80
80
80
80
80
F8
ENDCHAR
STARTCHAR 010D
ENCODING 269
SWIDTH 545 0
DWIDTH 6 0
BBX 4 10 1 0
BITMAP
D0
60
20
00
F0
80
80
80
80
F0
ENDCHAR
STARTCHAR 010E
ENCODING 270
SWIDTH 727 0
DWIDTH 8 0
BBX 6 12 1 0
BITMAP
50
70
20
00
F8
9C
8C
8C
8C
8C
9C
F8
ENDCHAR
STARTCHAR 010F
ENCODING 271
SWIDTH 727 0
DWIDTH 8 0
BBX 7 9 1 0
BITMAP
02
1E
1C
F8
98
98
98
98
F8
ENDCHAR
STARTCHAR 0110
ENCODING 272
SWIDTH 727 0
DWIDTH 8 0
BBX 7 8 0 0
BITMAP
7C
66
66
F6
66
66
66
7C
ENDCHAR
STARTCHAR 0111
ENCODING 273
SWIDTH 545 0
DWIDTH 6 0
BBX 5 8 1 0
BITMAP
38
18
F8
98
98
98
98
F8
ENDCHAR
STARTCHAR 0112
ENCODING 274
SWIDTH 636 0
DWIDTH 7 0
BBX 5 10 1 0
BITMAP
70
00
F8
80
80
F8
80
80
80
F8
ENDCHAR
STARTCHAR 0113
ENCODING 275
SWIDTH 545 0
DWIDTH 6 0
BBX 5 8 1 0
BITMAP
70
00
F0
98
F8
80
80
F0
ENDCHAR
STARTCHAR 0116
ENCODING 278
SWIDTH 636 0
DWIDTH 7 0
BBX 5 11 1 0
BITMAP
20
20
00
F8
80
80
F8
80
80
80
F8
ENDCHAR
STARTCHAR 0117
ENCODING 279
SWIDTH 545 0
DWIDTH 6 0
BBX 5 9 1 0
BITMAP
60
60
00
F0
98
F8
80
80
F0
ENDCHAR
STARTCHAR 0118
ENCODING 280
SWIDTH 636 0
DWIDTH 7 0
BBX 5 10 1 -2
BITMAP
F8
80
80
F8
80
80
80
F8
10
18
ENDCHAR
STARTCHAR 0119
ENCODING 281
SWIDTH 545 0
DWIDTH 6 0
BBX 5 8 1 -2
BITMAP
F0
98
F8
80
80
F0
20
30
ENDCHAR
STARTCHAR 011A
ENCODING 282
SWIDTH 636 0
DWIDTH 7 0
BBX 5 12 1 0
BITMAP
50
70
20
00
F8
80
80
F8
80
80
80
F8
ENDCHAR
STARTCHAR 011B
ENCODING 283
SWIDTH 545 0
DWIDTH 6 0
BBX 5 10 1 0
BITMAP
D0
60
20
00
F0
98
F8
80
80
F0
ENDCHAR
STARTCHAR 011E
ENCODING 286
SWIDTH 636 0
DWIDTH 7 0
BBX 6 11 1 0
BITMAP
50
70
00
FC
80
80
9C
8C
8C
8C
FC
ENDCHAR
STARTCHAR 011F
ENCODING 287
SWIDTH 545 0
DWIDTH 6 0
BBX 5 11 1 -2
BITMAP
50
70
00
F8
98
98
98
98
F8
18
F0
ENDCHAR
STARTCHAR 0122
ENCODING 290
SWIDTH 636 0
DWIDTH 7 0
BBX 6 11 1 -3
BITMAP
FC
80
80
9C
8C
8C
8C
FC
00
20
20
ENDCHAR
STARTCHAR 0123
ENCODING 291
SWIDTH 545 0
DWIDTH 6 0
BBX 5 11 1 -2
BITMAP
20
20
00
F8
98
98
98
98
F8
18
F0
ENDCHAR
STARTCHAR 012A
ENCODING 298
SWIDTH 272 0
DWIDTH 3 0
BBX 3 10 0 0
BITMAP
E0
00
40
40
40
40
40
40
40
40
ENDCHAR
STARTCHAR 012B
ENCODING 299
SWIDTH 272 0
DWIDTH 3 0
BBX 3 8 0 0
BITMAP
E0
00
40
40
40
40
40
40
ENDCHAR
STARTCHAR 012E
ENCODING 302
SWIDTH 272 0
DWIDTH 3 0
BBX 3 10 0 -2
BITMAP
40
40
40
40
40
40
40
C0
80
E0
ENDCHAR
STARTCHAR 012F
ENCODING 303
SWIDTH 272 0
DWIDTH 3 0
BBX 2 11 0 -2
BITMAP
40
40
00
40
40
40
40
40
C0
80
C0
ENDCHAR
STARTCHAR 0130
ENCODING 304
SWIDTH 272 0
DWIDTH 3 0
BBX 1 11 1 0
BITMAP
80
80
00
80
80
80
80
80
80
80
80
ENDCHAR
STARTCHAR 0131
ENCODING 305
SWIDTH 272 0
DWIDTH 3 0
BBX 1 6 1 0
BITMAP
80
80
80
80
80
80
ENDCHAR
STARTCHAR 0136
ENCODING 310
SWIDTH 636 0
DWIDTH 7 0
BBX 6 11 1 -3
BITMAP
8C
98
B0
E0
F0
98
88
8C
00
20
20
ENDCHAR
STARTCHAR 0137
ENCODING 311
SWIDTH 545 0
DWIDTH 6 0
BBX 5 11 1 -3
BITMAP
80
80
98
B0
E0
F0
B0
98
00
60
40
ENDCHAR
STARTCHAR 0139
ENCODING 313
SWIDTH 545 0
DWIDTH 6 0
BBX 5 12 1 0
BITMAP
40
C0
80
00
80
80
80
80
80
80
80
F8
ENDCHAR
STARTCHAR 013A
ENCODING 314
SWIDTH 272 0
DWIDTH 3 0
BBX 2 12 1 0
BITMAP
40
80
80
00
80
80
80
80
80
80
80
C0
ENDCHAR
STARTCHAR 013B
ENCODING 315
SWIDTH 545 0
DWIDTH 6 0
BBX 5 11 1 -3
BITMAP
80
80
80
80
80
80
80
F8
00
20
60
ENDCHAR
STARTCHAR 013C
ENCODING 316
SWIDTH 272 0
DWIDTH 3 0
BBX 2 11 1 -3
BITMAP
80
80
80
80
80
80
80
C0
00
C0
80
ENDCHAR
STARTCHAR 013D
ENCODING 317
SWIDTH 545 0
DWIDTH 6 0
BBX 5 8 1 0
BITMAP
90
90
90
80
80
80
80
F8
ENDCHAR
STARTCHAR 013E
ENCODING 318
SWIDTH 363 0
DWIDTH 4 0
BBX 3 9 1 0
BITMAP
20
A0
A0
80
80
80
80
80
C0
ENDCHAR
STARTCHAR 0141
ENCODING 321
SWIDTH 545 0
DWIDTH 6 0
BBX 6 8 0 0
BITMAP
60
60
70
78
E0
60
60
7C
ENDCHAR
STARTCHAR 0142
ENCODING 322
SWIDTH 363 0
DWIDTH 4 0
BBX 4 8 0 0
BITMAP
40
40
50
60
C0
40
60
20
ENDCHAR
STARTCHAR 0143
ENCODING 323
SWIDTH 727 0
DWIDTH 8 0
BBX 6 12 1 0
BITMAP
18
10
20
00
C4
C4
E4
B4
B4
9C
8C
8C
ENDCHAR
STARTCHAR 0144
ENCODING 324
SWIDTH 636 0
DWIDTH 7 0
BBX 5 10 1 0
BITMAP
30
20
60
00
F0
98
98
98
98
98
ENDCHAR
STARTCHAR 0145
ENCODING 325
SWIDTH 727 0
DWIDTH 8 0
BBX 6 11 1 -3
BITMAP
C4
C4
E4
B4
B4
9C
8C
8C
00
30
20
ENDCHAR
STARTCHAR 0146
ENCODING 326
SWIDTH 636 0
DWIDTH 7 0
BBX 5 9 1 -3
BITMAP
F0
98
98
98
98
98
00
20
60
ENDCHAR
STARTCHAR 0147
ENCODING 327
SWIDTH 727 0
DWIDTH 8 0
BBX 6 12 1 0
BITMAP
68
30
10
00
C4
C4
E4
B4
B4
9C
8C
8C
ENDCHAR
STARTCHAR 0148
ENCODING 328
SWIDTH 636 0
DWIDTH 7 0
BBX 5 10 1 0
BITMAP
50
70
20
00
F0
98
98
98
98
98
ENDCHAR
STARTCHAR 014C
ENCODING 332
SWIDTH 727 0
DWIDTH 8 0
BBX 6 10 1 0
BITMAP
78
00
FC
8C
8C
8C
8C
8C
8C
FC
ENDCHAR
STARTCHAR 014D
ENCODING 333
SWIDTH 636 0
DWIDTH 7 0
BBX 5 8 1 0
BITMAP
70
00
F0
98
98
98
98
F0
ENDCHAR
STARTCHAR 0150
ENCODING 336
SWIDTH 727 0
DWIDTH 8 0
BBX 6 12 1 0
BITMAP
28
28
50
00
FC
8C
8C
8C
8C
8C
8C
FC
ENDCHAR
STARTCHAR 0151
ENCODING 337
SWIDTH 636 0
DWIDTH 7 0
BBX 5 10 1 0
BITMAP
78
50
F0
00
F0
98
98
98
98
F0
ENDCHAR
STARTCHAR 0152
ENCODING 338
SWIDTH 1000 0
DWIDTH 11 0
BBX 9 8 1 0
BITMAP
FF80
8C00
8C00
8F80
8C00
8C00
8C00
FF80
ENDCHAR
STARTCHAR 0153
ENCODING 339
SWIDTH 909 0
DWIDTH 10 0
BBX 8 6 1 0
BITMAP
FF
99
9F
98
98
FF
ENDCHAR
STARTCHAR 0154
ENCODING 340
SWIDTH 636 0
DWIDTH 7 0
BBX 6 12 1 0
BITMAP
10
30
20
00
F8
88
88
88
F8
98
98
8C
ENDCHAR
STARTCHAR 0155
ENCODING 341
SWIDTH 363 0
DWIDTH 4 0
BBX 3 10 1 0
BITMAP
20
40
C0
00
E0
80
80
80
80
80
ENDCHAR
STARTCHAR 0156
ENCODING 342
SWIDTH 636 0
DWIDTH 7 0
BBX 6 11 1 -3
BITMAP
F8
88
88
88
F8
98
98
8C
00
20
20
ENDCHAR
STARTCHAR 0157
ENCODING 343
SWIDTH 363 0
DWIDTH 4 0
BBX 4 9 0 -3
BITMAP
70
40
40
40
40
40
00
40
C0
ENDCHAR
STARTCHAR 0158
ENCODING 344
SWIDTH 636 0
DWIDTH 7 0
BBX 6 12 1 0
BITMAP
50
70
20
00
F8
88
88
88
F8
98
98
8C
ENDCHAR
STARTCHAR 0159
ENCODING 345
SWIDTH 363 0
DWIDTH 4 0
BBX 3 10 1 0
BITMAP
A0
E0
40
00
E0
80
80
80
80
80
ENDCHAR
STARTCHAR 015A
ENCODING 346
SWIDTH 545 0
DWIDTH 6 0
BBX 5 12 1 0
BITMAP
30
20
40
00
F8
80
80
F0
38
18
18
F0
ENDCHAR
STARTCHAR 015B
ENCODING 347
SWIDTH 545 0
DWIDTH 6 0
BBX 4 10 1 0
BITMAP
20
60
40
00
F0
80
E0
70
30
F0
ENDCHAR
STARTCHAR 015E
ENCODING 350
SWIDTH 545 0
DWIDTH 6 0
BBX 5 10 1 -2
BITMAP
F8
80
80
F0
38
18
18
F0
20
60
ENDCHAR
STARTCHAR 015F
ENCODING 351
SWIDTH 545 0
DWIDTH 6 0
BBX 4 8 1 -2
BITMAP
F0
80
E0
70
30
F0
20
60
ENDCHAR
STARTCHAR 0160
ENCODING 352
SWIDTH 545 0
DWIDTH 6 0
BBX 5 12 1 0
BITMAP
D0
60
20
00
F8
80
80
F0
38
18
18
F0
ENDCHAR
STARTCHAR 0161
ENCODING 353
SWIDTH 545 0
DWIDTH 6 0
BBX 4 10 1 0
BITMAP
B0
60
40
00
F0
80
E0
70
30
F0
ENDCHAR
STARTCHAR 0162
ENCODING 354
SWIDTH 636 0
DWIDTH 7 0
BBX 6 10 0 -2
BITMAP
FC
10
10
10
10
10
10
18
18
30
ENDCHAR
STARTCHAR 0163
ENCODING 355
SWIDTH 454 0
DWIDTH 5 0
BBX 3 10 1 -2
BITMAP
80
80
E0
80
80
80
80
E0
20
E0
ENDCHAR
STARTCHAR 0164
ENCODING 356
SWIDTH 636 0
DWIDTH 7 0
BBX 6 12 0 0
BITMAP
28
38
10
00
FC
10
10
10
10
10
10
10
ENDCHAR
STARTCHAR 0165
ENCODING 357
SWIDTH 454 0
DWIDTH 5 0
BBX 3 9 1 0
BITMAP
20
A0
A0
E0
80
80
80
80
E0
ENDCHAR
STARTCHAR 016A
ENCODING 362
SWIDTH 727 0
DWIDTH 8 0
BBX 6 10 1 0
BITMAP
70
00
8C
8C
8C
8C
8C
8C
CC
F8
ENDCHAR
STARTCHAR 016B
ENCODING 363
SWIDTH 636 0
DWIDTH 7 0
BBX 5 8 1 0
BITMAP
70
00
98
98
98
98
98
F8
ENDCHAR
STARTCHAR 016E
ENCODING 366
SWIDTH 727 0
DWIDTH 8 0
BBX 6 12 1 0
BITMAP
30
50
30
00
8C
8C
8C
8C
8C
8C
CC
F8
ENDCHAR
STARTCHAR 016F
ENCODING 367
SWIDTH 636 0
DWIDTH 7 0
BBX 5 10 1 0
BITMAP
60
50
60
00
98
98
98
98
98
F8
ENDCHAR
STARTCHAR 0170
ENCODING 368
SWIDTH 727 0
DWIDTH 8 0
BBX 6 12 1 0
BITMAP
28
78
50
00
8C
8C
8C
8C
8C
8C
CC
F8
ENDCHAR
STARTCHAR 0171
ENCODING 369
SWIDTH 636 0
DWIDTH 7 0
BBX 5 10 1 0
BITMAP
78
50
F0
00
98
98
98
98
98
F8
ENDCHAR
STARTCHAR 0172
ENCODING 370
SWIDTH 727 0
DWIDTH 8 0
BBX 6 10 1 -2
BITMAP
8C
8C
8C
8C
8C
8C
CC
F8
20
38
ENDCHAR
STARTCHAR 0173
ENCODING 371
SWIDTH 636 0
DWIDTH 7 0
BBX 5 8 1 -2
BITMAP
98
98
98
98
98
F8
30
18
ENDCHAR
STARTCHAR 0178
ENCODING 376
SWIDTH 636 0
DWIDTH 7 0
BBX 7 11 0 0
BITMAP
28
28
00
C6
4C
6C
38
38
10
10
10
ENDCHAR
STARTCHAR 0179
ENCODING 377
SWIDTH 636 0
DWIDTH 7 0
BBX 6 12 0 0
BITMAP
18
10
30
00
7C
0C
18
18
30
60
60
FC
ENDCHAR
STARTCHAR 017A
ENCODING 378
SWIDTH 545 0
DWIDTH 6 0
BBX 5 10 0 0
BITMAP
10
30
20
00
78
18
30
20
60
F8
ENDCHAR
STARTCHAR 017B
ENCODING 379
SWIDTH 636 0
DWIDTH 7 0
BBX 6 11 0 0
BITMAP
10
10
00
7C
0C
18
18
30
60
60
FC
ENDCHAR
STARTCHAR 017C
ENCODING 380
SWIDTH 545 0
DWIDTH 6 0
BBX 5 9 0 0
BITMAP
30
30
00
78
18
30
20
60
F8
ENDCHAR
STARTCHAR 017D
ENCODING 381
SWIDTH 636 0
DWIDTH 7 0
BBX 6 12 0 0
BITMAP
28
38
10
00
7C
0C
18
18
30
60
60
FC
ENDCHAR
STARTCHAR 017E
ENCODING 382
SWIDTH 545 0
DWIDTH 6 0
BBX 5 10 0 0
BITMAP
58
30
20
00
78
18
30
20
60
F8
ENDCHAR
STARTCHAR 0192
ENCODING 402
SWIDTH 545 0
DWIDTH 6 0
BBX 6 10 0 -2
BITMAP
3C
30
38
30
30
30
30
30
20
E0
ENDCHAR
STARTCHAR 0218
ENCODING 536
SWIDTH 545 0
DWIDTH 6 0
BBX 5 11 1 -3
BITMAP
F8
80
80
F0
38
18
18
F0
00
20
40
ENDCHAR
STARTCHAR 0219
ENCODING 537
SWIDTH 545 0
DWIDTH 6 0
BBX 4 9 1 -3
BITMAP
F0
80
E0
70
30
F0
00
40
40
ENDCHAR
STARTCHAR 021A
ENCODING 538
SWIDTH 636 0
DWIDTH 7 0
BBX 6 11 0 -3
BITMAP
FC
10
10
10
10
10
10
10
00
10
30
ENDCHAR
STARTCHAR 021B
ENCODING 539
SWIDTH 454 0
DWIDTH 5 0
BBX 3 11 1 -3
BITMAP
80
80
E0
80
80
80
80
E0
00
40
40
ENDCHAR
STARTCHAR 0237
ENCODING 567
SWIDTH 272 0
DWIDTH 3 0
BBX 2 8 0 -2
BITMAP
40
40
40
40
40
40
40
C0
ENDCHAR
STARTCHAR 02C6
ENCODING 710
SWIDTH 545 0
DWIDTH 6 0
BBX 3 3 1 7
BITMAP
40
60
A0
ENDCHAR
STARTCHAR 02C7
ENCODING 711
SWIDTH 545 0
DWIDTH 6 0
BBX 3 3 1 7
BITMAP
A0
60
40
ENDCHAR
STARTCHAR 02C9
ENCODING 713
SWIDTH 545 0
DWIDTH 6 0
BBX 3 1 1 7
BITMAP
E0
ENDCHAR
STARTCHAR 02D8
ENCODING 728
SWIDTH 545 0
DWIDTH 6 0
BBX 3 2 1 7
BITMAP
A0
E0
ENDCHAR
STARTCHAR 02D9
ENCODING 729
SWIDTH 545 0
DWIDTH 6 0
BBX 2 2 2 7
BITMAP
C0
C0
ENDCHAR
STARTCHAR 02DA
ENCODING 730
SWIDTH 545 0
DWIDTH 6 0
BBX 3 3 1 7
BITMAP
60
A0
60
ENDCHAR
STARTCHAR 02DB
ENCODING 731
SWIDTH 545 0
DWIDTH 6 0
BBX 2 3 2 -2
BITMAP
80
80
C0
ENDCHAR
STARTCHAR 02DC
ENCODING 732
SWIDTH 545 0
DWIDTH 6 0
BBX 4 2 1 7
BITMAP
D0
A0
ENDCHAR
STARTCHAR 02DD
ENCODING 733
SWIDTH 545 0
DWIDTH 6 0
BBX 4 3 1 7
BITMAP
50
F0
A0
ENDCHAR
STARTCHAR 0300
ENCODING 768
SWIDTH 0 0
DWIDTH 0 0
BBX 3 3 -5 7
BITMAP
C0
40
20
ENDCHAR
STARTCHAR 0301
ENCODING 769
SWIDTH 0 0
DWIDTH 0 0
BBX 2 3 -4 7
BITMAP
40
C0
80
ENDCHAR
STARTCHAR 0302
ENCODING 770
SWIDTH 0 0
DWIDTH 0 0
BBX 4 3 -5 7
BITMAP
40
60
B0
ENDCHAR
STARTCHAR 0303
ENCODING 771
SWIDTH 0 0
DWIDTH 0 0
BBX 4 2 -5 7
BITMAP
D0
A0
ENDCHAR
STARTCHAR 0304
ENCODING 772
SWIDTH 0 0
DWIDTH 0 0
BBX 3 1 -5 7
BITMAP
E0
ENDCHAR
STARTCHAR 0306
ENCODING 774
SWIDTH 0 0
DWIDTH 0 0
BBX 3 2 -5 7
BITMAP
A0
E0
ENDCHAR
STARTCHAR 0307
ENCODING 775
SWIDTH 0 0
DWIDTH 0 0
BBX 2 2 -4 7
BITMAP
C0
C0
ENDCHAR
STARTCHAR 0308
ENCODING 776
SWIDTH 0 0
DWIDTH 0 0
BBX 4 2 -5 7
BITMAP
B0
B0
ENDCHAR
STARTCHAR 030A
ENCODING 778
SWIDTH 0 0
DWIDTH 0 0
BBX 2 3 -4 7
BITMAP
C0
C0
C0
ENDCHAR
STARTCHAR 030B
ENCODING 779
SWIDTH 0 0
DWIDTH 0 0
BBX 4 3 -5 7
BITMAP
50
F0
A0
ENDCHAR
STARTCHAR 030C
ENCODING 780
SWIDTH 0 0
DWIDTH 0 0
BBX 4 3 -5 7
BITMAP
B0
60
40
ENDCHAR
STARTCHAR 0326
ENCODING 806
SWIDTH 0 0
DWIDTH 0 0
BBX 1 2 -4 -3
BITMAP
80
80
ENDCHAR
STARTCHAR 0327
ENCODING 807
SWIDTH 0 0
DWIDTH 0 0
BBX 2 3 -4 -2
BITMAP
40
40
C0
ENDCHAR
STARTCHAR 0328
ENCODING 808
SWIDTH 0 0
DWIDTH 0 0
BBX 2 3 -4 -2
BITMAP
80
80
C0
ENDCHAR
STARTCHAR 03C0
ENCODING 960
SWIDTH 636 0
DWIDTH 7 0
BBX 5 6 1 0
BITMAP
F8
98
98
98
98
98
ENDCHAR
STARTCHAR 1E9E
ENCODING 7838
SWIDTH 727 0
DWIDTH 8 0
BBX 6 8 1 0
BITMAP
F8
C8
90
BC
8C
84
8C
BC
ENDCHAR
STARTCHAR 2013
ENCODING 8211
SWIDTH 545 0
DWIDTH 6 0
BBX 6 1 0 3
BITMAP
FC
ENDCHAR
STARTCHAR 2014
ENCODING 8212
SWIDTH 1000 0
DWIDTH 11 0
BBX 11 1 0 3
BITMAP
FFE0
ENDCHAR
STARTCHAR 2018
ENCODING 8216
SWIDTH 272 0
DWIDTH 3 0
BBX 3 3 0 5
BITMAP
60
40
C0
ENDCHAR
STARTCHAR 2019
ENCODING 8217
SWIDTH 272 0
DWIDTH 3 0
BBX 3 3 0 5
BITMAP
60
40
C0
ENDCHAR
STARTCHAR 201A
ENCODING 8218
SWIDTH 272 0
DWIDTH 3 0
BBX 3 3 0 -1
BITMAP
60
40
C0
ENDCHAR
STARTCHAR 201C
ENCODING 8220
SWIDTH 454 0
DWIDTH 5 0
BBX 5 3 0 5
BITMAP
68
58
D0
ENDCHAR
STARTCHAR 201D
ENCODING 8221
SWIDTH 454 0
DWIDTH 5 0
BBX 5 3 0 5
BITMAP
78
58
D0
ENDCHAR
STARTCHAR 201E
ENCODING 8222
SWIDTH 454 0
DWIDTH 5 0
BBX 5 3 0 -1
BITMAP
78
50
D0
ENDCHAR
STARTCHAR 2020
ENCODING 8224
SWIDTH 454 0
DWIDTH 5 0
BBX 4 9 1 -1
BITMAP
40
40
F0
40
40
40
40
40
40
ENDCHAR
STARTCHAR 2021
ENCODING 8225
SWIDTH 454 0
DWIDTH 5 0
BBX 4 9 1 -1
BITMAP
40
40
F0
40
40
40
F0
40
40
ENDCHAR
STARTCHAR 2022
ENCODING 8226
SWIDTH 363 0
DWIDTH 4 0
BBX 2 3 1 3
BITMAP
C0
C0
C0
ENDCHAR
STARTCHAR 2026
ENCODING 8230
SWIDTH 818 0
DWIDTH 9 0
BBX 7 2 1 0
BITMAP
92
92
ENDCHAR
STARTCHAR 2030
ENCODING 8240
SWIDTH 1272 0
DWIDTH 14 0
BBX 13 8 0 0
BITMAP
6200
F600
F400
FFB8
6AA8
1AA8
12A8
33B8
ENDCHAR
STARTCHAR 2039
ENCODING 8249
SWIDTH 363 0
DWIDTH 4 0
BBX 3 5 0 1
BITMAP
20
60
C0
60
20
ENDCHAR
STARTCHAR 203A
ENCODING 8250
SWIDTH 363 0
DWIDTH 4 0
BBX 3 5 0 1
BITMAP
C0
60
20
60
C0
ENDCHAR
STARTCHAR 2044
ENCODING 8260
SWIDTH 181 0
DWIDTH 2 0
BBX 5 8 -2 0
BITMAP
08
18
10
30
20
60
40
C0
ENDCHAR
STARTCHAR 2070
ENCODING 8304
SWIDTH 363 0
DWIDTH 4 0
BBX 4 5 0 3
BITMAP
60
F0
F0
F0
60
ENDCHAR
STARTCHAR 2074
ENCODING 8308
SWIDTH 363 0
DWIDTH 4 0
BBX 4 5 0 3
BITMAP
60
40
70
F0
30
ENDCHAR
STARTCHAR 2080
ENCODING 8320
SWIDTH 363 0
DWIDTH 4 0
BBX 4 5 0 0
BITMAP
60
F0
F0
F0
60
ENDCHAR
STARTCHAR 2081
ENCODING 8321
SWIDTH 363 0
DWIDTH 4 0
BBX 3 5 1 0
BITMAP
C0
40
40
40
E0
ENDCHAR
STARTCHAR 2082
ENCODING 8322
SWIDTH 363 0
DWIDTH 4 0
BBX 4 5 0 0
BITMAP
E0
30
60
C0
F0
ENDCHAR
STARTCHAR 2083
ENCODING 8323
SWIDTH 363 0
DWIDTH 4 0
BBX 4 5 0 0
BITMAP
E0
30
60
30
E0
ENDCHAR
STARTCHAR 2084
ENCODING 8324
SWIDTH 363 0
DWIDTH 4 0
BBX 4 5 0 0
BITMAP
60
40
70
F0
30
ENDCHAR
STARTCHAR 20AC
ENCODING 8364
SWIDTH 545 0
DWIDTH 6 0
BBX 6 8 0 0
BITMAP
3C
60
60
F8
60
F8
60
7C
ENDCHAR
STARTCHAR 20BA
ENCODING 8378
SWIDTH 545 0
DWIDTH 6 0
BBX 6 8 0 0
BITMAP
60
78
E0
78
E0
6C
6C
78
ENDCHAR
STARTCHAR 20BD
ENCODING 8381
SWIDTH 545 0
DWIDTH 6 0
BBX 6 8 0 0
BITMAP
78
4C
4C
4C
F8
40
F8
40
ENDCHAR
STARTCHAR 2113
ENCODING 8467
SWIDTH 272 0
DWIDTH 3 0
BBX 2 8 1 0
BITMAP
80
80
80
80
80
80
80
C0
ENDCHAR
STARTCHAR 2122
ENCODING 8482
SWIDTH 818 0
DWIDTH 9 0
BBX 8 4 0 4
BITMAP
E9
4F
4F
4D
ENDCHAR
STARTCHAR 2126
ENCODING 8486
SWIDTH 727 0
DWIDTH 8 0
BBX 6 8 1 0
BITMAP
FC
8C
8C
8C
8C
8C
C8
DC
ENDCHAR
STARTCHAR 212E
ENCODING 8494
SWIDTH 909 0
DWIDTH 10 0
BBX 8 8 1 0
BITMAP
3C
C2
83
83
FC
80
82
7C
ENDCHAR
STARTCHAR 2202
ENCODING 8706
SWIDTH 545 0
DWIDTH 6 0
BBX 5 8 1 0
BITMAP
F0
18
18
F8
98
98
98
F0
ENDCHAR
STARTCHAR 2206
ENCODING 8710
SWIDTH 636 0
DWIDTH 7 0
BBX 7 8 0 0
BITMAP
38
38
2C
6C
64
46
46
FE
ENDCHAR
STARTCHAR 220F
ENCODING 8719
SWIDTH 727 0
DWIDTH 8 0
BBX 6 9 1 -1
BITMAP
FC
8C
8C
8C
8C
8C
8C
8C
8C
ENDCHAR
STARTCHAR 2211
ENCODING 8721
SWIDTH 636 0
DWIDTH 7 0
BBX 5 9 1 -1
BITMAP
F8
C0
C0
60
30
60
C0
C0
F8
ENDCHAR
STARTCHAR 2212
ENCODING 8722
SWIDTH 545 0
DWIDTH 6 0
BBX 5 1 1 4
BITMAP
F8
ENDCHAR
STARTCHAR 2215
ENCODING 8725
SWIDTH 181 0
DWIDTH 2 0
BBX 5 8 -2 0
BITMAP
08
18
10
30
20
60
40
C0
ENDCHAR
STARTCHAR 2219
ENCODING 8729
SWIDTH 272 0
DWIDTH 3 0
BBX 1 2 1 3
BITMAP
80
80
ENDCHAR
STARTCHAR 221A
ENCODING 8730
SWIDTH 636 0
DWIDTH 7 0
BBX 7 9 0 0
BITMAP
06
04
04
0C
08
C8
78
30
30
ENDCHAR
STARTCHAR 221E
ENCODING 8734
SWIDTH 636 0
DWIDTH 7 0
BBX 6 4 0 2
BITMAP
7C
D4
D4
7C
ENDCHAR
STARTCHAR 222B
ENCODING 8747
SWIDTH 454 0
DWIDTH 5 0
BBX 5 10 0 -2
BITMAP
38
20
20
20
20
20
20
20
20
E0
ENDCHAR
STARTCHAR 2248
ENCODING 8776
SWIDTH 545 0
DWIDTH 6 0
BBX 6 5 0 1
BITMAP
64
FC
78
FC
58
ENDCHAR
STARTCHAR 2260
ENCODING 8800
SWIDTH 545 0
DWIDTH 6 0
BBX 5 6 1 0
BITMAP
10
F8
20
F8
C0
40
ENDCHAR
STARTCHAR 2264
ENCODING 8804
SWIDTH 545 0
DWIDTH 6 0
BBX 5 7 1 0
BITMAP
38
E0
80
E0
38
00
F8
ENDCHAR
STARTCHAR 2265
ENCODING 8805
SWIDTH 545 0
DWIDTH 6 0
BBX 5 7 1 0
BITMAP
C0
70
18
70
C0
00
F8
ENDCHAR
STARTCHAR 25CA
ENCODING 9674
SWIDTH 545 0
DWIDTH 6 0
BBX 6 8 0 0
BITMAP
30
38
48
4C
CC
48
38
30
ENDCHAR
STARTCHAR F000
ENCODING 61440
SWIDTH 727 0
DWIDTH 8 0
BBX 6 6 1 1
BITMAP
20
30
70
78
F8
FC
ENDCHAR
STARTCHAR FB01
ENCODING 64257
SWIDTH 727 0
DWIDTH 8 0
BBX 6 9 1 0
BITMAP
0C
EC
80
EC
8C
8C
8C
8C
8C
ENDCHAR
STARTCHAR FB02
ENCODING 64258
SWIDTH 727 0
DWIDTH 8 0
BBX 7 8 1 0
BITMAP
EC
8C
EC
8C
8C
8C
8C
86
ENDCHAR
ENDFONT
